<?xml version="1.0" encoding="UTF-8" standalone="no"?>
<svg
   xmlns:dc="http://purl.org/dc/elements/1.1/"
   xmlns:cc="http://creativecommons.org/ns#"
   xmlns:rdf="http://www.w3.org/1999/02/22-rdf-syntax-ns#"
   xmlns:svg="http://www.w3.org/2000/svg"
   xmlns="http://www.w3.org/2000/svg"
   xmlns:sodipodi="http://sodipodi.sourceforge.net/DTD/sodipodi-0.dtd"
   xmlns:inkscape="http://www.inkscape.org/namespaces/inkscape"
   width="676.05292pt"
   height="164.05429pt"
   viewBox="0 0 676.05292 164.05429"
   version="1.1"
   id="svg2"
   inkscape:version="0.91 r13725"
   sodipodi:docname="logoTransparente.fitted.svg">
  <metadata
     id="metadata28">
    <rdf:RDF>
      <cc:Work
         rdf:about="">
        <dc:format>image/svg+xml</dc:format>
        <dc:type
           rdf:resource="http://purl.org/dc/dcmitype/StillImage" />
        <dc:title></dc:title>
      </cc:Work>
    </rdf:RDF>
  </metadata>
  <defs
     id="defs26" />
  <sodipodi:namedview
     pagecolor="#ffffff"
     bordercolor="#666666"
     borderopacity="1"
     objecttolerance="10"
     gridtolerance="10"
     guidetolerance="10"
     inkscape:pageopacity="0"
     inkscape:pageshadow="2"
     inkscape:window-width="1301"
     inkscape:window-height="744"
     id="namedview24"
     showgrid="false"
     inkscape:zoom="0.29667058"
     inkscape:cx="114.37511"
     inkscape:cy="84.310282"
     inkscape:window-x="65"
     inkscape:window-y="24"
     inkscape:window-maximized="1"
     inkscape:current-layer="svg2"
     fit-margin-top="0"
     fit-margin-left="0"
     fit-margin-right="0"
     fit-margin-bottom="0" />
  <path
     d="m 2.24,0.03303667 c 21.98,-0.05 43.97,0 65.95,-0.02 -0.71,3.59000003 -1.42,7.18000003 -2.22,10.75000033 -4.76,0.2 -9.72,-0.65 -14.34,0.81 -3.81,1.43 -3.51,6.12 -2.8,9.39 4.12,21.05 11.79,41.42 13.84,62.88 7.8,-15.05 18.33,-28.41 27.82,-42.39 4.52,-6.89 10.25,-13.25 12.71,-21.26 0.73,-2.56 1.17,-6.1 -1.56,-7.64 -4.43,-2.37 -9.69,-1.63 -14.52,-1.81 0.77,-3.5500003 1.58,-7.0900003 2.29,-10.65000033 17.77,-0.19 35.55,-0.02 53.32,-0.08 -0.74,3.56000003 -1.5,7.12000003 -2.25,10.68000033 -3.64,0.07 -7.64,-0.21 -10.78,2.01 -4.74,3.25 -8.04,8.09 -11.39,12.67 -15.17,21.11 -30.35,42.22 -45.53,63.33 -1.58,2.31 -3.73,4.44 -4.19,7.32 -2.01,9.970003 -4.31,19.880003 -6.25,29.870003 -0.77,2.64 0.54,5.56 3.08,6.65 5.17,2.24 10.98,1.47 16.46,1.67 -0.75,3.58 -1.53,7.15 -2.22,10.75 -25,0.12 -50.01,0.01 -75.01,0.05 0.75,-3.61 1.5,-7.21 2.28,-10.81 5.73,-0.09 11.86,0.5 17.1,-2.29 3.72,-1.93 6.01,-5.81 6.81,-9.83 1.89,-8.71 3.59,-17.46 5.47,-26.170003 0.86,-2.69 -0.56,-5.28 -1.24,-7.82 -6.86,-22.49 -13.65,-44.99 -20.52,-67.47 -1.03,-3.01 -2.06,-6.42 -4.86,-8.27 -2.86,-1.88 -6.44,-1.53 -9.69,-1.64 C 0.74,7.1530367 1.51,3.6030367 2.24,0.03303667 Z"
     id="path6"
     inkscape:connector-curvature="0"
     style="fill:#3ea43a" />
  <path
     style="fill:#777b9b;fill-opacity:1;fill-rule:evenodd"
     d="m 372.26282,16.989597 c -3.1,0.0154 -6.19782,0.0484 -9.28282,0.0234 -16.34,0 -32.68031,0.0106 -49.02031,-0.009 -0.75,3.58 -1.58,7.14875 -2.1,10.76875 4.61,0.16 9.50969,-0.34875 13.82969,1.63125 2.49,1.1 3.91062,3.97906 3.19062,6.63906 -7.42,34.32 -14.56062,68.710943 -21.89062,103.060943 -0.7,3.85 -2.76,7.61938 -6.25,9.60938 -4.61,2.72 -10.13907,2.32968 -15.28907,2.52968 -0.69,3.58967 -1.42031,7.16998 -2.12031,10.76998 l 61.72031,0 c 7.35,-0.05 14.74,0.27031 22.05,-0.72969 19.15,-2.18 37.79,-10.99031 50.55,-25.62031 13.14,-14.77 20.31031,-34.17031 21.97031,-53.720313 1.33,-14.16 0.04,-29.34938 -7.9,-41.55938 -6.98,-11.18 -19.12093,-18.21093 -31.76093,-21.06093 -9.075,-2.27251 -18.39687,-2.37922 -27.69687,-2.33282 z m -6.09688,12.3875 c 8.90353,-0.0602 18.18531,0.56876 25.61406,5.90625 10.1,7.04 13.60062,19.97907 14.04062,31.68907 0.43,19.04 -2.58062,38.820003 -12.44062,55.400003 -7.19,12.38 -19.26062,22.08062 -33.29062,25.39062 -7.53,1.94 -15.37907,1.61 -23.08907,1.6 8.49,-39.97 16.89969,-79.959693 25.37969,-119.929693 1.25,-0.025 2.514,-0.0477 3.78594,-0.0562 z"
     id="path8"
     inkscape:connector-curvature="0" />
  <path
     d="m 185.655,34.009907 c -13.38366,0.008 -26.77125,4.10188 -37.71562,11.85313 -14.88,10.52 -25.14876,26.98062 -29.21876,44.64062 -2.56,11.520003 -2.66,24.208763 2.85,34.918763 4.24,8.46 11.99969,14.86093 20.82969,18.11093 11.31,4.18 23.84031,4.34 35.57031,1.95 8.47,-2.02 17.27,-5.79 22.3,-13.25 3.46,-4.95 3.80876,-12.13 0.0687,-17 -7.32,10.13 -19.58,17.26969 -32.3,16.32969 -6,-0.27 -12.24968,-2.71969 -15.67968,-7.87969 -4.7,-7.01 -4.83,-16.01062 -3.8,-24.090623 15.78,1.080003 32.13968,-1.36031 46.07968,-9.12031 8.74,-4.87 16.49032,-12.19907 20.32032,-21.58907 3.01,-7.66 3.03968,-17.02 -1.72032,-24 -4.16,-6 -11.31,-9.14031 -18.35,-10.22031 -3.05812,-0.43875 -6.14584,-0.65488 -9.23437,-0.65313 z m -7.81406,12.22969 c 2.37375,0.0262 4.68406,0.76875 6.43906,2.49375 3.42,3.47 3.83938,8.74 3.45938,13.35 -0.55,7.74 -5.22,14.75938 -11.55,19.05938 -7.62,5.29 -17.12,7.01062 -26.25,6.89062 1.68,-9.58 4.72124,-18.99062 9.58124,-27.44062 2.89,-4.9 6.52,-9.63 11.5,-12.55 2.01,-1.14 4.44656,-1.82938 6.82032,-1.80313 z"
     id="path12"
     style="fill:#3ea43a;fill-opacity:1"
     inkscape:connector-curvature="0" />
  <path
     d="m 253.52,38.313037 c 11.59,-4.56 24.37,-4.92 36.63,-3.7 7.33,0.96 15.06,2.66 20.85,7.55 6.26,5.17 6.97,16.14 0.55,21.44 -5.3,4.12 -12.32,4.76 -18.79,4.94 -0.22,-7.75 -1.78,-16.82 -8.79,-21.39 -6.51,-3.62 -15.34,-1.71 -20.48,3.48 -5.15,5.31 -4.54,14.97 1.67,19.24 10.43,7.72 24.04,10.27 33.52,19.48 14.05,12.630003 12.02,38.250003 -3.68,48.670003 -11.63,7.94 -26.31,9.31 -40.01,8.91 -10.01,-0.56 -20.89,-2.33 -28.48,-9.44 -6.61,-6.01 -7.63,-17.67 -1.1,-24.1 4.48,-4.58 11.15,-5.7 17.28,-5.98 0.22,7.53 1.28,15.63 6.27,21.62 6.74,7.98 19.8,7.39 27.65,1.42 5.23,-4.18 6.44,-12.33 3.03,-18.01 -2.79,-4.32 -7.46,-6.86 -11.86,-9.25 -9.56,-5.110003 -20.28,-8.970003 -27.6,-17.350003 -7.56,-8.35 -9.18,-21.19 -4.72,-31.41 3.39,-7.65 10.41,-13.12 18.06,-16.12 z"
     id="path14"
     inkscape:connector-curvature="0"
     style="fill:#3ea43a" />
  <path
     d="m 518.95187,50.995857 c -3.83015,-0.0318 -7.66405,0.27031 -11.40156,0.81718 -15.26,2.27 -29.6,10.45 -39.1,22.65 -11.2,14.2 -17.23062,32.489693 -16.34062,50.579693 0.46,9.41 3.44031,18.96062 9.72031,26.14062 5.85,6.74 14.41031,10.63031 23.12031,12.02031 15.46,2.5 31.93969,-0.53 45.07969,-9.2 12.92,-8.38 21.98062,-21.78062 26.94062,-36.19062 3.81,-11.47 5.28969,-23.910623 2.97969,-35.840623 -1.97,-10.1 -7.82,-19.71 -16.85,-24.95 -7.315,-4.26938 -15.7221,-5.95674 -24.14844,-6.02656 z m -3.83593,13.65312 c 3.26552,0.0478 6.49844,1.05 8.97344,3.24375 4.02,3.46 5.27093,8.96969 5.76093,14.02969 0.79,10.37 -0.84031,20.770313 -3.12031,30.870313 -2.5,10.01 -5.89938,20.16969 -12.55938,28.22969 -3.58,4.25 -8.41124,8.03 -14.18124,8.3 -5.08,0.54 -10.50876,-1.60969 -13.26876,-6.02969 -3.23,-5.13 -3.56,-11.43969 -3.65,-17.32969 0.24,-12.75 2.80969,-25.44938 7.47969,-37.309383 3.69,-9.24 9.11938,-19.18093 18.80938,-23.11093 1.82625,-0.60751 3.79693,-0.9224 5.75625,-0.89375 z"
     id="path18"
     style="fill:#777b9b;fill-opacity:1"
     inkscape:connector-curvature="0" />
  <path
     d="m 596.81,71.763037 c 11.19,-12.44 27.48,-20.23 44.24,-20.71 9.44,-0.33 19.61,0.75 27.47,6.47 7.03,5 10,15.64 5.15,23.09 -4.94,7.11 -14.38,9.13 -22.53,8.88 -0.09,-7.95 -1.17,-16.76 -6.8,-22.85 -3.55,-3.99 -9.84,-4.34 -14.26,-1.62 -6.01,3.73 -9.84,10.02 -12.77,16.29 -4.14,9.46 -6.89,19.520003 -8.34,29.730003 -1.17,8.44 -1.7,17.42 1.64,25.46 2.03,4.93 6.06,9.09 11.19,10.77 9.03,2.88 19.36,1.1 27,-4.52 4.13,-2.86 7.24,-6.87 10.24,-10.84 3.89,4.68 3.83,11.7 0.82,16.81 -3.81,6.72 -11.12,10.46 -18.23,12.7 -9.6,2.84 -19.87,3.3 -29.73,1.77 -10.83,-1.67 -21.44,-7.13 -27.68,-16.36 -5.76,-8.01 -7.67,-18.15 -7.14,-27.85 0.95,-17.38 8.14,-34.270003 19.73,-47.220003 z"
     id="path20"
     inkscape:connector-curvature="0"
     style="fill:#777b9b" />
</svg>
