<?xml version="1.0" encoding="UTF-8" standalone="no"?>
<svg
   xmlns:dc="http://purl.org/dc/elements/1.1/"
   xmlns:cc="http://creativecommons.org/ns#"
   xmlns:rdf="http://www.w3.org/1999/02/22-rdf-syntax-ns#"
   xmlns:svg="http://www.w3.org/2000/svg"
   xmlns="http://www.w3.org/2000/svg"
   xmlns:sodipodi="http://sodipodi.sourceforge.net/DTD/sodipodi-0.dtd"
   xmlns:inkscape="http://www.inkscape.org/namespaces/inkscape"
   width="900pt"
   height="900pt"
   viewBox="0 0 900 900"
   version="1.1"
   id="svg2"
   inkscape:version="0.91 r13725"
   sodipodi:docname="logoGmail(1) (copia).svg">
  <metadata
     id="metadata28">
    <rdf:RDF>
      <cc:Work
         rdf:about="">
        <dc:format>image/svg+xml</dc:format>
        <dc:type
           rdf:resource="http://purl.org/dc/dcmitype/StillImage" />
      </cc:Work>
    </rdf:RDF>
  </metadata>
  <defs
     id="defs26" />
  <sodipodi:namedview
     pagecolor="#ffffff"
     bordercolor="#666666"
     borderopacity="1"
     objecttolerance="10"
     gridtolerance="10"
     guidetolerance="10"
     inkscape:pageopacity="0"
     inkscape:pageshadow="2"
     inkscape:window-width="1301"
     inkscape:window-height="744"
     id="namedview24"
     showgrid="false"
     inkscape:zoom="1.1866823"
     inkscape:cx="330.55907"
     inkscape:cy="586.50766"
     inkscape:window-x="65"
     inkscape:window-y="24"
     inkscape:window-maximized="1"
     inkscape:current-layer="svg2" />
  <path
     fill="#3ea43a"
     d=" M 130.21 362.02 C 152.19 361.97 174.18 362.02 196.16 362.00 C 195.45 365.59 194.74 369.18 193.94 372.75 C 189.18 372.95 184.22 372.10 179.60 373.56 C 175.79 374.99 176.09 379.68 176.80 382.95 C 180.92 404.00 188.59 424.37 190.64 445.83 C 198.44 430.78 208.97 417.42 218.46 403.44 C 222.98 396.55 228.71 390.19 231.17 382.18 C 231.90 379.62 232.34 376.08 229.61 374.54 C 225.18 372.17 219.92 372.91 215.09 372.73 C 215.86 369.18 216.67 365.64 217.38 362.08 C 235.15 361.89 252.93 362.06 270.70 362.00 C 269.96 365.56 269.20 369.12 268.45 372.68 C 264.81 372.75 260.81 372.47 257.67 374.69 C 252.93 377.94 249.63 382.78 246.28 387.36 C 231.11 408.47 215.93 429.58 200.75 450.69 C 199.17 453.00 197.02 455.13 196.56 458.01 C 194.55 467.98 192.25 477.89 190.31 487.88 C 189.54 490.52 190.85 493.44 193.39 494.53 C 198.56 496.77 204.37 496.00 209.85 496.20 C 209.10 499.78 208.32 503.35 207.63 506.95 C 182.63 507.07 157.62 506.96 132.62 507.00 C 133.37 503.39 134.12 499.79 134.90 496.19 C 140.63 496.10 146.76 496.69 152.00 493.90 C 155.72 491.97 158.01 488.09 158.81 484.07 C 160.70 475.36 162.40 466.61 164.28 457.90 C 165.14 455.21 163.72 452.62 163.04 450.08 C 156.18 427.59 149.39 405.09 142.52 382.61 C 141.49 379.60 140.46 376.19 137.66 374.34 C 134.80 372.46 131.22 372.81 127.97 372.70 C 128.71 369.14 129.48 365.59 130.21 362.02 Z"
     id="path6" />
  <path
     style="fill-rule:evenodd;fill:#777b9b;fill-opacity:1"
     d="M 625.29102 473.7207 C 621.41602 473.74004 617.54375 473.78125 613.6875 473.75 C 593.2625 473.75 572.83711 473.76328 552.41211 473.73828 C 551.47461 478.21328 550.43711 482.67422 549.78711 487.19922 C 555.54961 487.39922 561.67422 486.76328 567.07422 489.23828 C 570.18672 490.61328 571.9625 494.21211 571.0625 497.53711 C 561.7875 540.43711 552.86172 583.42578 543.69922 626.36328 C 542.82422 631.17578 540.24922 635.8875 535.88672 638.375 C 530.12422 641.775 523.21289 641.28711 516.77539 641.53711 C 515.91289 646.02461 515 650.5 514.125 655 L 591.27539 655 C 600.46289 654.9375 609.70039 655.33789 618.83789 654.08789 C 642.77539 651.36289 666.07539 640.35 682.02539 622.0625 C 698.45039 603.6 707.41328 579.34961 709.48828 554.91211 C 711.15078 537.21211 709.53828 518.22539 699.61328 502.96289 C 690.88828 488.98789 675.71211 480.19922 659.91211 476.63672 C 648.56836 473.79609 636.91602 473.6627 625.29102 473.7207 z M 617.66992 489.20508 C 628.79934 489.12988 640.40156 489.91602 649.6875 496.58789 C 662.3125 505.38789 666.68828 521.56172 667.23828 536.19922 C 667.77578 559.99922 664.0125 584.72422 651.6875 605.44922 C 642.7 620.92422 627.61172 633.05 610.07422 637.1875 C 600.66172 639.6125 590.85039 639.2 581.21289 639.1875 C 591.82539 589.225 602.3375 539.23789 612.9375 489.27539 C 614.5 489.24414 616.08 489.21582 617.66992 489.20508 z "
     transform="scale(0.8,0.8)"
     id="path8" />
  <path
     d="M 392.03125 494.99609 C 375.30168 495.00562 358.56719 500.12344 344.88672 509.8125 C 326.28672 522.9625 313.45078 543.53828 308.36328 565.61328 C 305.16328 580.01328 305.03828 595.87422 311.92578 609.26172 C 317.22578 619.83672 326.92539 627.83789 337.96289 631.90039 C 352.10039 637.12539 367.76328 637.32539 382.42578 634.33789 C 393.01328 631.81289 404.01328 627.10039 410.30078 617.77539 C 414.62578 611.58789 415.06172 602.61289 410.38672 596.52539 C 401.23672 609.18789 385.91172 618.1125 370.01172 616.9375 C 362.51172 616.6 354.69961 613.53789 350.41211 607.08789 C 344.53711 598.32539 344.37461 587.07461 345.66211 576.97461 C 365.38711 578.32461 385.83672 575.27422 403.26172 565.57422 C 414.18672 559.48672 423.87461 550.32539 428.66211 538.58789 C 432.42461 529.01289 432.46172 517.31289 426.51172 508.58789 C 421.31172 501.08789 412.37422 497.1625 403.57422 495.8125 C 399.75156 495.26406 395.89192 494.9939 392.03125 494.99609 z M 382.26367 510.2832 C 385.23086 510.31602 388.11875 511.24414 390.3125 513.40039 C 394.5875 517.73789 395.11172 524.32539 394.63672 530.08789 C 393.94922 539.76289 388.11172 548.53711 380.19922 553.91211 C 370.67422 560.52461 358.79922 562.67539 347.38672 562.52539 C 349.48672 550.55039 353.28828 538.78711 359.36328 528.22461 C 362.97578 522.09961 367.51328 516.18711 373.73828 512.53711 C 376.25078 511.11211 379.29648 510.25039 382.26367 510.2832 z "
     transform="scale(0.8,0.8)"
     id="path12"
     style="fill:#3ea43a;fill-opacity:1" />
  <path
     fill="#3ea43a"
     d=" M 381.49 400.30 C 393.08 395.74 405.86 395.38 418.12 396.60 C 425.45 397.56 433.18 399.26 438.97 404.15 C 445.23 409.32 445.94 420.29 439.52 425.59 C 434.22 429.71 427.20 430.35 420.73 430.53 C 420.51 422.78 418.95 413.71 411.94 409.14 C 405.43 405.52 396.60 407.43 391.46 412.62 C 386.31 417.93 386.92 427.59 393.13 431.86 C 403.56 439.58 417.17 442.13 426.65 451.34 C 440.70 463.97 438.67 489.59 422.97 500.01 C 411.34 507.95 396.66 509.32 382.96 508.92 C 372.95 508.36 362.07 506.59 354.48 499.48 C 347.87 493.47 346.85 481.81 353.38 475.38 C 357.86 470.80 364.53 469.68 370.66 469.40 C 370.88 476.93 371.94 485.03 376.93 491.02 C 383.67 499.00 396.73 498.41 404.58 492.44 C 409.81 488.26 411.02 480.11 407.61 474.43 C 404.82 470.11 400.15 467.57 395.75 465.18 C 386.19 460.07 375.47 456.21 368.15 447.83 C 360.59 439.48 358.97 426.64 363.43 416.42 C 366.82 408.77 373.84 403.30 381.49 400.30 Z"
     id="path14" />
  <path
     d="M 808.65234 516.22852 C 803.86465 516.18884 799.07227 516.56641 794.40039 517.25 C 775.32539 520.0875 757.40039 530.3125 745.52539 545.5625 C 731.52539 563.3125 723.98711 586.17461 725.09961 608.78711 C 725.67461 620.54961 729.4 632.48789 737.25 641.46289 C 744.5625 649.88789 755.26289 654.75078 766.15039 656.48828 C 785.47539 659.61328 806.075 655.82578 822.5 644.98828 C 838.65 634.51328 849.97578 617.7625 856.17578 599.75 C 860.93828 585.4125 862.78789 569.86172 859.90039 554.94922 C 857.43789 542.32422 850.12539 530.31172 838.83789 523.76172 C 829.69414 518.425 819.18526 516.3158 808.65234 516.22852 z M 803.85742 533.29492 C 807.93933 533.35461 811.98047 534.60742 815.07422 537.34961 C 820.09922 541.67461 821.66289 548.56172 822.27539 554.88672 C 823.26289 567.84922 821.225 580.84961 818.375 593.47461 C 815.25 605.98711 811.00078 618.68672 802.67578 628.76172 C 798.20078 634.07422 792.16172 638.79922 784.94922 639.13672 C 778.59922 639.81172 771.81328 637.12461 768.36328 631.59961 C 764.32578 625.18711 763.91328 617.3 763.80078 609.9375 C 764.10078 594 767.31289 578.12578 773.15039 563.30078 C 777.76289 551.75078 784.54961 539.32461 796.66211 534.41211 C 798.94492 533.65273 801.40828 533.25911 803.85742 533.29492 z "
     transform="scale(0.8,0.8)"
     id="path18"
     style="fill:#777b9b;fill-opacity:1" />
  <path
     fill="#777b9b"
     d=" M 724.78 433.75 C 735.97 421.31 752.26 413.52 769.02 413.04 C 778.46 412.71 788.63 413.79 796.49 419.51 C 803.52 424.51 806.49 435.15 801.64 442.60 C 796.70 449.71 787.26 451.73 779.11 451.48 C 779.02 443.53 777.94 434.72 772.31 428.63 C 768.76 424.64 762.47 424.29 758.05 427.01 C 752.04 430.74 748.21 437.03 745.28 443.30 C 741.14 452.76 738.39 462.82 736.94 473.03 C 735.77 481.47 735.24 490.45 738.58 498.49 C 740.61 503.42 744.64 507.58 749.77 509.26 C 758.80 512.14 769.13 510.36 776.77 504.74 C 780.90 501.88 784.01 497.87 787.01 493.90 C 790.90 498.58 790.84 505.60 787.83 510.71 C 784.02 517.43 776.71 521.17 769.60 523.41 C 760.00 526.25 749.73 526.71 739.87 525.18 C 729.04 523.51 718.43 518.05 712.19 508.82 C 706.43 500.81 704.52 490.67 705.05 480.97 C 706.00 463.59 713.19 446.70 724.78 433.75 Z"
     id="path20" />
</svg>
